<svg xmlns="http://www.w3.org/2000/svg" width="32" height="32" shape-rendering="crispEdges">
<rect x="8" y="5" width="1" height="1" fill="#402711" /><rect x="9" y="5" width="1" height="1" fill="#3e2710" /><rect x="10" y="5" width="1" height="1" fill="#3e2610" /><rect x="11" y="5" width="1" height="1" fill="#3f270f" /><rect x="12" y="5" width="1" height="1" fill="#412710" /><rect x="13" y="5" width="1" height="1" fill="#40280f" /><rect x="14" y="5" width="1" height="1" fill="#412811" /><rect x="15" y="5" width="1" height="1" fill="#3f280f" /><rect x="16" y="5" width="1" height="1" fill="#412811" /><rect x="17" y="5" width="1" height="1" fill="#412810" /><rect x="18" y="5" width="1" height="1" fill="#3f2810" /><rect x="19" y="5" width="1" height="1" fill="#41290f" /><rect x="20" y="5" width="1" height="1" fill="#3f2810" /><rect x="7" y="6" width="1" height="1" fill="#412810" /><rect x="8" y="6" width="1" height="1" fill="#ca7e20" /><rect x="9" y="6" width="1" height="1" fill="#fcb93c" /><rect x="10" y="6" width="1" height="1" fill="#cf8320" /><rect x="11" y="6" width="1" height="1" fill="#cf8321" /><rect x="12" y="6" width="1" height="1" fill="#fbbc3b" /><rect x="13" y="6" width="1" height="1" fill="#f9b83b" /><rect x="14" y="6" width="1" height="1" fill="#fbba3b" /><rect x="15" y="6" width="1" height="1" fill="#fab83b" /><rect x="16" y="6" width="1" height="1" fill="#fbb73c" /><rect x="17" y="6" width="1" height="1" fill="#fcbb3b" /><rect x="18" y="6" width="1" height="1" fill="#feba3c" /><rect x="19" y="6" width="1" height="1" fill="#fab93b" /><rect x="20" y="6" width="1" height="1" fill="#c87d1e" /><rect x="21" y="6" width="1" height="1" fill="#40270f" /><rect x="6" y="7" width="1" height="1" fill="#3e2710" /><rect x="7" y="7" width="1" height="1" fill="#c4781f" /><rect x="8" y="7" width="1" height="1" fill="#fab73b" /><rect x="9" y="7" width="1" height="1" fill="#fdcd41" /><rect x="10" y="7" width="1" height="1" fill="#d18422" /><rect x="11" y="7" width="1" height="1" fill="#fbba3a" /><rect x="12" y="7" width="1" height="1" fill="#f9b93b" /><rect x="13" y="7" width="1" height="1" fill="#d68923" /><rect x="14" y="7" width="1" height="1" fill="#fbb93a" /><rect x="15" y="7" width="1" height="1" fill="#d38821" /><rect x="16" y="7" width="1" height="1" fill="#fbb93a" /><rect x="17" y="7" width="1" height="1" fill="#fbbb3d" /><rect x="18" y="7" width="1" height="1" fill="#ffda48" /><rect x="19" y="7" width="1" height="1" fill="#fab73a" /><rect x="20" y="7" width="1" height="1" fill="#f9b73b" /><rect x="21" y="7" width="1" height="1" fill="#c87b1f" /><rect x="22" y="7" width="1" height="1" fill="#382510" /><rect x="5" y="8" width="1" height="1" fill="#734b1e" /><rect x="6" y="8" width="1" height="1" fill="#ce8223" /><rect x="7" y="8" width="1" height="1" fill="#fbb93c" /><rect x="8" y="8" width="1" height="1" fill="#f8bb3a" /><rect x="9" y="8" width="1" height="1" fill="#c6781b" /><rect x="10" y="8" width="1" height="1" fill="#fdbb3b" /><rect x="11" y="8" width="1" height="1" fill="#fbba3d" /><rect x="12" y="8" width="1" height="1" fill="#f8b83b" /><rect x="13" y="8" width="1" height="1" fill="#d58a23" /><rect x="14" y="8" width="1" height="1" fill="#fbb93b" /><rect x="15" y="8" width="1" height="1" fill="#d48823" /><rect x="16" y="8" width="1" height="1" fill="#d58921" /><rect x="17" y="8" width="1" height="1" fill="#fcb93c" /><rect x="18" y="8" width="1" height="1" fill="#ffcd45" /><rect x="19" y="8" width="1" height="1" fill="#d58721" /><rect x="20" y="8" width="1" height="1" fill="#fbbc3b" /><rect x="21" y="8" width="1" height="1" fill="#fbb83b" /><rect x="22" y="8" width="1" height="1" fill="#da8321" /><rect x="23" y="8" width="1" height="1" fill="#6e471c" /><rect x="4" y="9" width="1" height="1" fill="#3f2710" /><rect x="5" y="9" width="1" height="1" fill="#c87c20" /><rect x="6" y="9" width="1" height="1" fill="#fcb93c" /><rect x="7" y="9" width="1" height="1" fill="#cf8321" /><rect x="8" y="9" width="1" height="1" fill="#cd8321" /><rect x="9" y="9" width="1" height="1" fill="#fbba3c" /><rect x="10" y="9" width="1" height="1" fill="#c97d1f" /><rect x="11" y="9" width="1" height="1" fill="#fbb93d" /><rect x="12" y="9" width="1" height="1" fill="#d88c24" /><rect x="13" y="9" width="1" height="1" fill="#d48623" /><rect x="14" y="9" width="1" height="1" fill="#fcb93b" /><rect x="15" y="9" width="1" height="1" fill="#fbb83a" /><rect x="16" y="9" width="1" height="1" fill="#d28521" /><rect x="17" y="9" width="1" height="1" fill="#d18521" /><rect x="18" y="9" width="1" height="1" fill="#fbb93a" /><rect x="19" y="9" width="1" height="1" fill="#fbba3b" /><rect x="20" y="9" width="1" height="1" fill="#d68a23" /><rect x="21" y="9" width="1" height="1" fill="#d58a22" /><rect x="22" y="9" width="1" height="1" fill="#fbb73a" /><rect x="23" y="9" width="1" height="1" fill="#cf8222" /><rect x="24" y="9" width="1" height="1" fill="#402811" /><rect x="4" y="10" width="1" height="1" fill="#412612" /><rect x="5" y="10" width="1" height="1" fill="#fab93d" /><rect x="6" y="10" width="1" height="1" fill="#c2771f" /><rect x="7" y="10" width="1" height="1" fill="#bd721e" /><rect x="8" y="10" width="1" height="1" fill="#fab73a" /><rect x="9" y="10" width="1" height="1" fill="#fdc73f" /><rect x="10" y="10" width="1" height="1" fill="#c0731d" /><rect x="11" y="10" width="1" height="1" fill="#fbb739" /><rect x="12" y="10" width="1" height="1" fill="#be721d" /><rect x="13" y="10" width="1" height="1" fill="#b86d1b" /><rect x="14" y="10" width="1" height="1" fill="#fab739" /><rect x="15" y="10" width="1" height="1" fill="#d18322" /><rect x="16" y="10" width="1" height="1" fill="#cf8620" /><rect x="17" y="10" width="1" height="1" fill="#b96e1d" /><rect x="18" y="10" width="1" height="1" fill="#9a4b0d" /><rect x="19" y="10" width="1" height="1" fill="#fbb639" /><rect x="20" y="10" width="1" height="1" fill="#ba6d1d" /><rect x="21" y="10" width="1" height="1" fill="#d58922" /><rect x="22" y="10" width="1" height="1" fill="#d98c23" /><rect x="23" y="10" width="1" height="1" fill="#cd8120" /><rect x="24" y="10" width="1" height="1" fill="#402910" /><rect x="4" y="11" width="1" height="1" fill="#422c13" /><rect x="5" y="11" width="1" height="1" fill="#c37920" /><rect x="6" y="11" width="1" height="1" fill="#c27a20" /><rect x="7" y="11" width="1" height="1" fill="#402811" /><rect x="8" y="11" width="1" height="1" fill="#b66f1e" /><rect x="9" y="11" width="1" height="1" fill="#b76d1d" /><rect x="10" y="11" width="1" height="1" fill="#3f2712" /><rect x="11" y="11" width="1" height="1" fill="#bf7621" /><rect x="12" y="11" width="1" height="1" fill="#b8721f" /><rect x="13" y="11" width="1" height="1" fill="#482a11" /><rect x="14" y="11" width="1" height="1" fill="#ba711e" /><rect x="15" y="11" width="1" height="1" fill="#d68b24" /><rect x="16" y="11" width="1" height="1" fill="#d08423" /><rect x="17" y="11" width="1" height="1" fill="#432710" /><rect x="18" y="11" width="1" height="1" fill="#b8701e" /><rect x="19" y="11" width="1" height="1" fill="#b76f1c" /><rect x="20" y="11" width="1" height="1" fill="#412710" /><rect x="21" y="11" width="1" height="1" fill="#d08623" /><rect x="22" y="11" width="1" height="1" fill="#d78b23" /><rect x="23" y="11" width="1" height="1" fill="#c0771e" /><rect x="24" y="11" width="1" height="1" fill="#442b13" /><rect x="6" y="12" width="1" height="1" fill="#9a5217" /><rect x="7" y="12" width="1" height="1" fill="#402811" /><rect x="8" y="12" width="1" height="1" fill="#402811" /><rect x="9" y="12" width="1" height="1" fill="#3f2710" /><rect x="10" y="12" width="1" height="1" fill="#975017" /><rect x="11" y="12" width="1" height="1" fill="#b16a1c" /><rect x="12" y="12" width="1" height="1" fill="#b36b20" /><rect x="13" y="12" width="1" height="1" fill="#b2691e" /><rect x="14" y="12" width="1" height="1" fill="#b2691f" /><rect x="15" y="12" width="1" height="1" fill="#412810" /><rect x="16" y="12" width="1" height="1" fill="#422a11" /><rect x="17" y="12" width="1" height="1" fill="#402812" /><rect x="18" y="12" width="1" height="1" fill="#402910" /><rect x="19" y="12" width="1" height="1" fill="#412611" /><rect x="20" y="12" width="1" height="1" fill="#40280f" /><rect x="21" y="12" width="1" height="1" fill="#995017" /><rect x="22" y="12" width="1" height="1" fill="#3f2714" /><rect x="5" y="13" width="1" height="1" fill="#704b21" /><rect x="6" y="13" width="1" height="1" fill="#b56b21" /><rect x="7" y="13" width="1" height="1" fill="#412811" /><rect x="8" y="13" width="1" height="1" fill="#412811" /><rect x="9" y="13" width="1" height="1" fill="#422a11" /><rect x="10" y="13" width="1" height="1" fill="#934d17" /><rect x="11" y="13" width="1" height="1" fill="#934e17" /><rect x="12" y="13" width="1" height="1" fill="#944f17" /><rect x="13" y="13" width="1" height="1" fill="#944f17" /><rect x="14" y="13" width="1" height="1" fill="#955018" /><rect x="15" y="13" width="1" height="1" fill="#934f18" /><rect x="16" y="13" width="1" height="1" fill="#412911" /><rect x="17" y="13" width="1" height="1" fill="#3f2810" /><rect x="18" y="13" width="1" height="1" fill="#402811" /><rect x="19" y="13" width="1" height="1" fill="#402811" /><rect x="20" y="13" width="1" height="1" fill="#412712" /><rect x="21" y="13" width="1" height="1" fill="#b9701f" /><rect x="22" y="13" width="1" height="1" fill="#402a14" /><rect x="6" y="14" width="1" height="1" fill="#b66d20" /><rect x="7" y="14" width="1" height="1" fill="#402812" /><rect x="8" y="14" width="1" height="1" fill="#412711" /><rect x="9" y="14" width="1" height="1" fill="#b85e1a" /><rect x="10" y="14" width="1" height="1" fill="#3f2810" /><rect x="11" y="14" width="1" height="1" fill="#412812" /><rect x="12" y="14" width="1" height="1" fill="#402811" /><rect x="13" y="14" width="1" height="1" fill="#412811" /><rect x="14" y="14" width="1" height="1" fill="#41280f" /><rect x="15" y="14" width="1" height="1" fill="#412711" /><rect x="16" y="14" width="1" height="1" fill="#924d18" /><rect x="17" y="14" width="1" height="1" fill="#412811" /><rect x="18" y="14" width="1" height="1" fill="#402811" /><rect x="19" y="14" width="1" height="1" fill="#402810" /><rect x="20" y="14" width="1" height="1" fill="#412811" /><rect x="21" y="14" width="1" height="1" fill="#ba701f" /><rect x="22" y="14" width="1" height="1" fill="#402815" /><rect x="25" y="14" width="1" height="1" fill="#402810" /><rect x="26" y="14" width="1" height="1" fill="#1b1208" /><rect x="6" y="15" width="1" height="1" fill="#b66c1f" /><rect x="7" y="15" width="1" height="1" fill="#3f2612" /><rect x="8" y="15" width="1" height="1" fill="#402610" /><rect x="9" y="15" width="1" height="1" fill="#462811" /><rect x="10" y="15" width="1" height="1" fill="#9b5319" /><rect x="11" y="15" width="1" height="1" fill="#fab757" /><rect x="12" y="15" width="1" height="1" fill="#f6b557" /><rect x="13" y="15" width="1" height="1" fill="#fbb85b" /><rect x="14" y="15" width="1" height="1" fill="#faaf56" /><rect x="15" y="15" width="1" height="1" fill="#3f2910" /><rect x="16" y="15" width="1" height="1" fill="#412710" /><rect x="17" y="15" width="1" height="1" fill="#3f280f" /><rect x="18" y="15" width="1" height="1" fill="#3f2911" /><rect x="19" y="15" width="1" height="1" fill="#402811" /><rect x="20" y="15" width="1" height="1" fill="#402810" /><rect x="21" y="15" width="1" height="1" fill="#bb711f" /><rect x="22" y="15" width="1" height="1" fill="#3b2513" /><rect x="23" y="15" width="1" height="1" fill="#452b15" /><rect x="24" y="15" width="1" height="1" fill="#7d5122" /><rect x="25" y="15" width="1" height="1" fill="#412710" /><rect x="26" y="15" width="1" height="1" fill="#ffe342" /><rect x="28" y="15" width="1" height="1" fill="#765125" /><rect x="6" y="16" width="1" height="1" fill="#b56e21" /><rect x="7" y="16" width="1" height="1" fill="#402812" /><rect x="8" y="16" width="1" height="1" fill="#402711" /><rect x="9" y="16" width="1" height="1" fill="#0d0602" /><rect x="10" y="16" width="1" height="1" fill="#fab755" /><rect x="11" y="16" width="1" height="1" fill="#f9b556" /><rect x="12" y="16" width="1" height="1" fill="#fbb858" /><rect x="13" y="16" width="1" height="1" fill="#f9b656" /><rect x="14" y="16" width="1" height="1" fill="#f8b455" /><rect x="15" y="16" width="1" height="1" fill="#412811" /><rect x="16" y="16" width="1" height="1" fill="#422811" /><rect x="17" y="16" width="1" height="1" fill="#3f2911" /><rect x="18" y="16" width="1" height="1" fill="#402912" /><rect x="19" y="16" width="1" height="1" fill="#412911" /><rect x="20" y="16" width="1" height="1" fill="#422710" /><rect x="21" y="16" width="1" height="1" fill="#bb7220" /><rect x="22" y="16" width="1" height="1" fill="#412710" /><rect x="23" y="16" width="1" height="1" fill="#f6b237" /><rect x="24" y="16" width="1" height="1" fill="#412912" /><rect x="25" y="16" width="1" height="1" fill="#ee9f25" /><rect x="26" y="16" width="1" height="1" fill="#fdc12b" /><rect x="27" y="16" width="1" height="1" fill="#412810" /><rect x="28" y="16" width="1" height="1" fill="#f3ac33" /><rect x="6" y="17" width="1" height="1" fill="#b56b21" /><rect x="7" y="17" width="1" height="1" fill="#402710" /><rect x="8" y="17" width="1" height="1" fill="#3f2710" /><rect x="9" y="17" width="1" height="1" fill="#402811" /><rect x="10" y="17" width="1" height="1" fill="#f6af4f" /><rect x="11" y="17" width="1" height="1" fill="#f8b34f" /><rect x="12" y="17" width="1" height="1" fill="#f7b551" /><rect x="13" y="17" width="1" height="1" fill="#422811" /><rect x="14" y="17" width="1" height="1" fill="#f7b250" /><rect x="15" y="17" width="1" height="1" fill="#422912" /><rect x="16" y="17" width="1" height="1" fill="#402710" /><rect x="17" y="17" width="1" height="1" fill="#402710" /><rect x="18" y="17" width="1" height="1" fill="#3f2811" /><rect x="19" y="17" width="1" height="1" fill="#402711" /><rect x="20" y="17" width="1" height="1" fill="#412711" /><rect x="21" y="17" width="1" height="1" fill="#412810" /><rect x="22" y="17" width="1" height="1" fill="#402811" /><rect x="23" y="17" width="1" height="1" fill="#e39425" /><rect x="24" y="17" width="1" height="1" fill="#40280f" /><rect x="25" y="17" width="1" height="1" fill="#c97e1f" /><rect x="26" y="17" width="1" height="1" fill="#fed639" /><rect x="27" y="17" width="1" height="1" fill="#f2a42d" /><rect x="28" y="17" width="1" height="1" fill="#f3a82f" /><rect x="6" y="18" width="1" height="1" fill="#b46c20" /><rect x="7" y="18" width="1" height="1" fill="#402811" /><rect x="8" y="18" width="1" height="1" fill="#3f2612" /><rect x="9" y="18" width="1" height="1" fill="#3f2710" /><rect x="10" y="18" width="1" height="1" fill="#422611" /><rect x="11" y="18" width="1" height="1" fill="#b46b1c" /><rect x="12" y="18" width="1" height="1" fill="#f6b34a" /><rect x="13" y="18" width="1" height="1" fill="#f5b049" /><rect x="14" y="18" width="1" height="1" fill="#402711" /><rect x="15" y="18" width="1" height="1" fill="#40270f" /><rect x="16" y="18" width="1" height="1" fill="#402811" /><rect x="17" y="18" width="1" height="1" fill="#3f2811" /><rect x="18" y="18" width="1" height="1" fill="#000000" /><rect x="19" y="18" width="1" height="1" fill="#eea833" /><rect x="20" y="18" width="1" height="1" fill="#412810" /><rect x="21" y="18" width="1" height="1" fill="#eca22e" /><rect x="22" y="18" width="1" height="1" fill="#e79127" /><rect x="23" y="18" width="1" height="1" fill="#bc701e" /><rect x="24" y="18" width="1" height="1" fill="#f2aa2f" /><rect x="25" y="18" width="1" height="1" fill="#bf721e" /><rect x="26" y="18" width="1" height="1" fill="#fdbc2d" /><rect x="27" y="18" width="1" height="1" fill="#de9020" /><rect x="28" y="18" width="1" height="1" fill="#432810" /><rect x="6" y="19" width="1" height="1" fill="#b36b1f" /><rect x="7" y="19" width="1" height="1" fill="#412710" /><rect x="8" y="19" width="1" height="1" fill="#3e2711" /><rect x="9" y="19" width="1" height="1" fill="#533216" /><rect x="10" y="19" width="1" height="1" fill="#b46c1f" /><rect x="11" y="19" width="1" height="1" fill="#412812" /><rect x="12" y="19" width="1" height="1" fill="#cf842d" /><rect x="13" y="19" width="1" height="1" fill="#c1701c" /><rect x="14" y="19" width="1" height="1" fill="#934b17" /><rect x="15" y="19" width="1" height="1" fill="#482a10" /><rect x="16" y="19" width="1" height="1" fill="#412811" /><rect x="17" y="19" width="1" height="1" fill="#402711" /><rect x="18" y="19" width="1" height="1" fill="#3f2911" /><rect x="19" y="19" width="1" height="1" fill="#eba22f" /><rect x="20" y="19" width="1" height="1" fill="#eaa12c" /><rect x="21" y="19" width="1" height="1" fill="#e79e2a" /><rect x="22" y="19" width="1" height="1" fill="#422811" /><rect x="23" y="19" width="1" height="1" fill="#412811" /><rect x="24" y="19" width="1" height="1" fill="#eaa12d" /><rect x="25" y="19" width="1" height="1" fill="#bf751d" /><rect x="26" y="19" width="1" height="1" fill="#000002" /><rect x="27" y="19" width="1" height="1" fill="#b76a1c" /><rect x="28" y="19" width="1" height="1" fill="#412b12" /><rect x="5" y="20" width="1" height="1" fill="#6c4821" /><rect x="6" y="20" width="1" height="1" fill="#b36c21" /><rect x="7" y="20" width="1" height="1" fill="#412811" /><rect x="8" y="20" width="1" height="1" fill="#3f2712" /><rect x="9" y="20" width="1" height="1" fill="#924b16" /><rect x="10" y="20" width="1" height="1" fill="#402611" /><rect x="11" y="20" width="1" height="1" fill="#b16b20" /><rect x="12" y="20" width="1" height="1" fill="#b5691f" /><rect x="13" y="20" width="1" height="1" fill="#b36a20" /><rect x="14" y="20" width="1" height="1" fill="#b36920" /><rect x="15" y="20" width="1" height="1" fill="#955017" /><rect x="16" y="20" width="1" height="1" fill="#402611" /><rect x="17" y="20" width="1" height="1" fill="#412711" /><rect x="18" y="20" width="1" height="1" fill="#000003" /><rect x="19" y="20" width="1" height="1" fill="#422810" /><rect x="20" y="20" width="1" height="1" fill="#412711" /><rect x="21" y="20" width="1" height="1" fill="#3f280f" /><rect x="22" y="20" width="1" height="1" fill="#c1761e" /><rect x="23" y="20" width="1" height="1" fill="#402811" /><rect x="24" y="20" width="1" height="1" fill="#cc7e20" /><rect x="25" y="20" width="1" height="1" fill="#bd731c" /><rect x="26" y="20" width="1" height="1" fill="#ba7015" /><rect x="27" y="20" width="1" height="1" fill="#412710" /><rect x="5" y="21" width="1" height="1" fill="#402810" /><rect x="6" y="21" width="1" height="1" fill="#432912" /><rect x="7" y="21" width="1" height="1" fill="#412a11" /><rect x="8" y="21" width="1" height="1" fill="#412611" /><rect x="9" y="21" width="1" height="1" fill="#422911" /><rect x="10" y="21" width="1" height="1" fill="#412812" /><rect x="11" y="21" width="1" height="1" fill="#402a12" /><rect x="12" y="21" width="1" height="1" fill="#422811" /><rect x="13" y="21" width="1" height="1" fill="#412811" /><rect x="14" y="21" width="1" height="1" fill="#432712" /><rect x="15" y="21" width="1" height="1" fill="#412612" /><rect x="16" y="21" width="1" height="1" fill="#422812" /><rect x="17" y="21" width="1" height="1" fill="#402710" /><rect x="18" y="21" width="1" height="1" fill="#a15211" /><rect x="19" y="21" width="1" height="1" fill="#f7b33a" /><rect x="20" y="21" width="1" height="1" fill="#f7b339" /><rect x="21" y="21" width="1" height="1" fill="#f8b53a" /><rect x="22" y="21" width="1" height="1" fill="#f8b837" /><rect x="23" y="21" width="1" height="1" fill="#412711" /><rect x="24" y="21" width="1" height="1" fill="#402710" /><rect x="25" y="21" width="1" height="1" fill="#c1751d" /><rect x="26" y="21" width="1" height="1" fill="#faa928" /><rect x="5" y="22" width="1" height="1" fill="#412712" /><rect x="6" y="22" width="1" height="1" fill="#b26921" /><rect x="7" y="22" width="1" height="1" fill="#b26a21" /><rect x="8" y="22" width="1" height="1" fill="#b26920" /><rect x="9" y="22" width="1" height="1" fill="#b16a1f" /><rect x="10" y="22" width="1" height="1" fill="#b36920" /><rect x="11" y="22" width="1" height="1" fill="#b16a1f" /><rect x="12" y="22" width="1" height="1" fill="#b26a20" /><rect x="13" y="22" width="1" height="1" fill="#b26a1f" /><rect x="14" y="22" width="1" height="1" fill="#b16a20" /><rect x="15" y="22" width="1" height="1" fill="#b1681f" /><rect x="16" y="22" width="1" height="1" fill="#412910" /><rect x="17" y="22" width="1" height="1" fill="#c5761b" /><rect x="18" y="22" width="1" height="1" fill="#f7b237" /><rect x="19" y="22" width="1" height="1" fill="#f6b73b" /><rect x="20" y="22" width="1" height="1" fill="#985118" /><rect x="21" y="22" width="1" height="1" fill="#f6b137" /><rect x="22" y="22" width="1" height="1" fill="#f7b238" /><rect x="23" y="22" width="1" height="1" fill="#c1751d" /><rect x="24" y="22" width="1" height="1" fill="#422911" /><rect x="25" y="22" width="1" height="1" fill="#9d5417" /><rect x="26" y="22" width="1" height="1" fill="#ffc22e" /><rect x="6" y="23" width="1" height="1" fill="#d06419" /><rect x="7" y="23" width="1" height="1" fill="#412812" /><rect x="8" y="23" width="1" height="1" fill="#cb631b" /><rect x="9" y="23" width="1" height="1" fill="#df6920" /><rect x="10" y="23" width="1" height="1" fill="#d1641a" /><rect x="11" y="23" width="1" height="1" fill="#d0651e" /><rect x="12" y="23" width="1" height="1" fill="#d4651d" /><rect x="13" y="23" width="1" height="1" fill="#452b0f" /><rect x="14" y="23" width="1" height="1" fill="#d96d1d" /><rect x="15" y="23" width="1" height="1" fill="#412910" /><rect x="16" y="23" width="1" height="1" fill="#fcbe2f" /><rect x="17" y="23" width="1" height="1" fill="#f4ae35" /><rect x="18" y="23" width="1" height="1" fill="#f5b136" /><rect x="19" y="23" width="1" height="1" fill="#985219" /><rect x="20" y="23" width="1" height="1" fill="#feee4a" /><rect x="21" y="23" width="1" height="1" fill="#ffef49" /><rect x="22" y="23" width="1" height="1" fill="#f5b237" /><rect x="23" y="23" width="1" height="1" fill="#f6b036" /><rect x="24" y="23" width="1" height="1" fill="#fcb72d" /><rect x="25" y="23" width="1" height="1" fill="#080707" /><rect x="26" y="23" width="1" height="1" fill="#fdc42f" /><rect x="5" y="24" width="1" height="1" fill="#6a4720" /><rect x="6" y="24" width="1" height="1" fill="#b56d1f" /><rect x="7" y="24" width="1" height="1" fill="#402911" /><rect x="8" y="24" width="1" height="1" fill="#b36a1e" /><rect x="9" y="24" width="1" height="1" fill="#cd741f" /><rect x="10" y="24" width="1" height="1" fill="#b46a1e" /><rect x="11" y="24" width="1" height="1" fill="#b36a1f" /><rect x="12" y="24" width="1" height="1" fill="#b56c1e" /><rect x="13" y="24" width="1" height="1" fill="#3b2614" /><rect x="14" y="24" width="1" height="1" fill="#b76c1d" /><rect x="15" y="24" width="1" height="1" fill="#402810" /><rect x="16" y="24" width="1" height="1" fill="#c67a1e" /><rect x="17" y="24" width="1" height="1" fill="#f6b036" /><rect x="18" y="24" width="1" height="1" fill="#f4ae35" /><rect x="19" y="24" width="1" height="1" fill="#f3ae33" /><rect x="20" y="24" width="1" height="1" fill="#974f18" /><rect x="21" y="24" width="1" height="1" fill="#975017" /><rect x="22" y="24" width="1" height="1" fill="#f5af36" /><rect x="23" y="24" width="1" height="1" fill="#f4af35" /><rect x="24" y="24" width="1" height="1" fill="#c87f1f" /><rect x="25" y="24" width="1" height="1" fill="#432911" /><rect x="26" y="24" width="1" height="1" fill="#fdbe2d" /><rect x="5" y="25" width="1" height="1" fill="#684721" /><rect x="6" y="25" width="1" height="1" fill="#b76c1f" /><rect x="7" y="25" width="1" height="1" fill="#412711" /><rect x="8" y="25" width="1" height="1" fill="#964f17" /><rect x="9" y="25" width="1" height="1" fill="#b75c19" /><rect x="10" y="25" width="1" height="1" fill="#964f17" /><rect x="11" y="25" width="1" height="1" fill="#975017" /><rect x="12" y="25" width="1" height="1" fill="#975117" /><rect x="13" y="25" width="1" height="1" fill="#3d2812" /><rect x="14" y="25" width="1" height="1" fill="#9a5318" /><rect x="15" y="25" width="1" height="1" fill="#402710" /><rect x="16" y="25" width="1" height="1" fill="#c47820" /><rect x="17" y="25" width="1" height="1" fill="#c3791c" /><rect x="18" y="25" width="1" height="1" fill="#f3ad32" /><rect x="19" y="25" width="1" height="1" fill="#f2ac33" /><rect x="20" y="25" width="1" height="1" fill="#f1ab32" /><rect x="21" y="25" width="1" height="1" fill="#944f17" /><rect x="22" y="25" width="1" height="1" fill="#f1ac34" /><rect x="23" y="25" width="1" height="1" fill="#c87c1e" /><rect x="24" y="25" width="1" height="1" fill="#c3791d" /><rect x="25" y="25" width="1" height="1" fill="#432713" /><rect x="26" y="25" width="1" height="1" fill="#fdba2e" /><rect x="6" y="26" width="1" height="1" fill="#b76e21" /><rect x="7" y="26" width="1" height="1" fill="#412510" /><rect x="8" y="26" width="1" height="1" fill="#b4691c" /><rect x="9" y="26" width="1" height="1" fill="#d17a21" /><rect x="10" y="26" width="1" height="1" fill="#b3691e" /><rect x="11" y="26" width="1" height="1" fill="#b66c1e" /><rect x="12" y="26" width="1" height="1" fill="#b66d1d" /><rect x="13" y="26" width="1" height="1" fill="#422612" /><rect x="14" y="26" width="1" height="1" fill="#b66c1e" /><rect x="15" y="26" width="1" height="1" fill="#402910" /><rect x="16" y="26" width="1" height="1" fill="#985118" /><rect x="17" y="26" width="1" height="1" fill="#c5791f" /><rect x="18" y="26" width="1" height="1" fill="#b96a19" /><rect x="19" y="26" width="1" height="1" fill="#9e5617" /><rect x="20" y="26" width="1" height="1" fill="#964c16" /><rect x="21" y="26" width="1" height="1" fill="#985117" /><rect x="22" y="26" width="1" height="1" fill="#efa92f" /><rect x="23" y="26" width="1" height="1" fill="#c67b1f" /><rect x="24" y="26" width="1" height="1" fill="#9e5618" /><rect x="25" y="26" width="1" height="1" fill="#422811" /><rect x="26" y="26" width="1" height="1" fill="#fcb62e" /><rect x="5" y="27" width="1" height="1" fill="#402811" /><rect x="6" y="27" width="1" height="1" fill="#4b2d12" /><rect x="7" y="27" width="1" height="1" fill="#402811" /><rect x="8" y="27" width="1" height="1" fill="#4c2c14" /><rect x="9" y="27" width="1" height="1" fill="#452910" /><rect x="10" y="27" width="1" height="1" fill="#4b2d13" /><rect x="11" y="27" width="1" height="1" fill="#4c2f14" /><rect x="12" y="27" width="1" height="1" fill="#492d13" /><rect x="13" y="27" width="1" height="1" fill="#412711" /><rect x="14" y="27" width="1" height="1" fill="#4c2f12" /><rect x="15" y="27" width="1" height="1" fill="#42270f" /><rect x="16" y="27" width="1" height="1" fill="#4d2d10" /><rect x="17" y="27" width="1" height="1" fill="#965117" /><rect x="18" y="27" width="1" height="1" fill="#9e561a" /><rect x="19" y="27" width="1" height="1" fill="#9c5718" /><rect x="20" y="27" width="1" height="1" fill="#975018" /><rect x="21" y="27" width="1" height="1" fill="#9c561a" /><rect x="22" y="27" width="1" height="1" fill="#9e581a" /><rect x="23" y="27" width="1" height="1" fill="#9a5419" /><rect x="24" y="27" width="1" height="1" fill="#482b12" /><rect x="25" y="27" width="1" height="1" fill="#402711" /><rect x="26" y="27" width="1" height="1" fill="#f9ad2a" /><rect x="17" y="28" width="1" height="1" fill="#3f2610" /><rect x="18" y="28" width="1" height="1" fill="#402710" /><rect x="19" y="28" width="1" height="1" fill="#412711" /><rect x="20" y="28" width="1" height="1" fill="#42260f" /><rect x="21" y="28" width="1" height="1" fill="#3f270f" /><rect x="22" y="28" width="1" height="1" fill="#402712" /><rect x="23" y="28" width="1" height="1" fill="#402711" />
</svg>